<svg id="Capa_1" fill="#ad864a" data-name="Capa 1" xmlns="http://www.w3.org/2000/svg" viewBox="0 0 217.94498 41.01117"><g id="Grupo_5151" data-name="Grupo 5151"><g id="Grupo_5072" data-name="Grupo 5072"><path id="Trazado_7677" data-name="Trazado 7677" d="M142.00754,20.1994a2.2,2.2,0,1,1,2.16473-2.23471l.00028.03472a2.154,2.154,0,0,1-2.10749,2.19954q-.02874.0006-.05752.00045m4.592,20.323v-.972c-2.15-.2-2.695-.586-2.695-2.736v-14.167h-.622a8.967,8.967,0,0,1-4.767,1.676v.782c1.954.586,2.345.977,2.345,2.926v8.783c0,2.149-.55,2.617-2.695,2.736v.972Z" transform="translate(-1.02751 0.00558)"/><path id="Trazado_7678" data-name="Trazado 7678" d="M97.66452,40.5214v-.972c2.031-.2,2.5-.586,2.5-2.736v-7.415c0-2.731-.7-4.489-3.435-4.489-1.753,0-3.63,1.368-4.607,2.15,0,0,.041.776.041,1.558v8.2c0,2.149.432,2.54,2.5,2.736v.972h-8.043v-.972c2.031-.2,2.5-.586,2.5-2.736v-7.415c0-2.731-.7-4.489-3.435-4.489-1.759,0-3.589,1.368-4.566,2.15v9.755c0,2.149.427,2.54,2.5,2.736v.972h-8.238v-.972c2.144-.118,2.695-.586,2.695-2.736v-8.788c0-1.949-.391-2.34-2.345-2.926v-.782c1.111,0,3.769-.617,4.741-1.676h.648l-.041,3.044a52.06618,52.06618,0,0,0,5.2-3.163c2.792-.432,4.854.494,5.651,3.358a45.91429,45.91429,0,0,0,5.282-3.355c3.5-.37,5.991,1.435,5.991,5.7v8.588c0,2.149.55,2.54,2.736,2.736v.972Z" transform="translate(-1.02751 0.00558)"/><path id="Trazado_7679" data-name="Trazado 7679" d="M193.5955,40.52139v-.972c2.031-.2,2.5-.586,2.5-2.736v-7.415c0-2.731-.9-4.489-3.826-4.489a8.85009,8.85009,0,0,0-4.566,1.954v9.95c0,2.149.468,2.5,2.5,2.736v.972h-8.238v-.972c2.15-.118,2.695-.586,2.695-2.736v-8.783c0-1.949-.391-2.34-2.345-2.926v-.782a12.944,12.944,0,0,0,4.854-1.676h.535l-.036,2.849s3.826-1.99,5.61-2.967c3.821-.334,5.862,1.517,5.862,5.7v8.588c0,2.149.545,2.54,2.731,2.736v.972Z" transform="translate(-1.02751 0.00558)"/><path id="Trazado_7680" data-name="Trazado 7680" d="M71.04753,40.9944c-1.563,0-2.54-1.25-2.54-3.2a20.14126,20.14126,0,0,1-4.278,3.2c-3.255,0-5.518-1.836-5.518-4.181s1.476-3.512,3.168-4.309c0,0,5.333-2.6,6.592-3.373v-.71c0-2.926-1.64-4.1-3.595-4.1s-2.458,1.173-2.458,1.954a2.084,2.084,0,0,0,.627,1.363,2.166,2.166,0,0,1-1.877,1.172,1.764,1.764,0,0,1-1.872-1.949c0-1.563,1.677-2.268,3.435-2.931l3.785-1.4c2.926,0,5,1.4,5,4.335v9.755c0,1.368.586,2.072,1.25,2.072a2.9,2.9,0,0,0,1.717-.663l.288.381-2.067,2.119a3.6,3.6,0,0,1-1.656.468m-2.576-10.619c-.437.278-4.232,2.227-4.232,2.227a3.765,3.765,0,0,0-2.33,3.625,3.054,3.054,0,0,0,3.163,2.659c1.327,0,3.4-2.268,3.4-2.268Z" transform="translate(-1.02751 0.00558)"/><path id="Trazado_7681" data-name="Trazado 7681" d="M33.21053,40.96941c-1.558.005-2.545-1.234-2.556-3.188a19.868,19.868,0,0,1-4.258,3.224c-3.255.021-5.533-1.8-5.543-4.145s1.45-3.517,3.142-4.325c0,0,5.317-2.633,6.572-3.409l-.005-.715c-.016-2.926-1.661-4.088-3.615-4.078s-2.453,1.188-2.448,1.97a2.09994,2.09994,0,0,0,.633,1.358,2.151,2.151,0,0,1-1.867,1.183,1.75905,1.75905,0,0,1-1.882-1.939c-.01-1.563,1.661-2.273,3.415-2.947l3.78-1.43c2.926-.015,5,1.378,5.019,4.3l.062,9.76c.005,1.368.6,2.067,1.26,2.062a2.881,2.881,0,0,0,1.712-.674l.288.381-2.052,2.129a3.61126,3.61126,0,0,1-1.656.478m-2.638-10.6c-.432.278-4.217,2.252-4.217,2.252a3.759,3.759,0,0,0-2.3,3.641,3.047,3.047,0,0,0,3.178,2.633c1.322-.005,3.379-2.283,3.379-2.283Z" transform="translate(-1.02751 0.00558)"/><path id="Trazado_7682" data-name="Trazado 7682" d="M134.59152,26.9404a1.555,1.555,0,0,1-1.682-.977.713.713,0,0,0,.237-.509.514.514,0,0,0-.586-.5c-1.09,0-2.422,2.144-3.121,3.317v8.54c0,2.149.35,2.54,3.276,2.736v.972h-9.015v-.972c2.144-.118,2.695-.586,2.695-2.736v-8.783c0-1.949-.391-2.34-2.345-2.926v-.782a10.5999,10.5999,0,0,0,4.69-1.676h.7l-.041,3.9s1.306-1.455,2.648-3.152a3.324,3.324,0,0,1,2.036-.869,2.19505,2.19505,0,0,1,2.381,2.227,2.116,2.116,0,0,1-1.872,2.186" transform="translate(-1.02751 0.00558)"/><path id="Trazado_7683" data-name="Trazado 7683" d="M151.10852,30.70539c.108,5.091,2.813,7.564,6.32,7.564a9.89306,9.89306,0,0,0,5.713-1.718l.026.962-2.664,2.448a8.69422,8.69422,0,0,1-4.15,1.034c-5.42,0-8.593-4.242-8.691-9.015-.123-6.011,4.237-9.369,8.665-9.369,4.006,0,6.387,1.877,6.433,4.14a2.182,2.182,0,0,1-2.07834,2.281q-.03282.00153-.06567.00206a1.621,1.621,0,0,1-1.712-1.522c.586.021,1.106-.494,1.106-1.347,0-1.414-1.738-2.314-3.831-2.314-3.3,0-5.153,2.756-5.07,6.855" transform="translate(-1.02751 0.00558)"/><path id="Trazado_7684" data-name="Trazado 7684" d="M215.24751,40.9944c-1.563,0-2.54-1.25-2.54-3.2a19.87909,19.87909,0,0,1-4.278,3.2c-3.25,0-5.518-1.836-5.518-4.181s1.476-3.512,3.168-4.309c0,0,5.333-2.6,6.593-3.373v-.71c0-2.926-1.641-4.1-3.59-4.1s-2.463,1.173-2.463,1.954a2.085,2.085,0,0,0,.627,1.363,2.165,2.165,0,0,1-1.877,1.172,1.76709,1.76709,0,0,1-1.872-1.949c0-1.563,1.677-2.268,3.435-2.931l3.785-1.4c2.931,0,5,1.4,5,4.335v9.755c0,1.368.586,2.072,1.25,2.072a2.8831,2.8831,0,0,0,1.717-.663l.288.381-2.062,2.119a3.63405,3.63405,0,0,1-1.661.468m-2.576-10.619c-.437.278-4.232,2.227-4.232,2.227a3.759,3.759,0,0,0-2.324,3.625,3.047,3.047,0,0,0,3.163,2.659c1.321,0,3.394-2.268,3.394-2.268Z" transform="translate(-1.02751 0.00558)"/><path id="Trazado_7685" data-name="Trazado 7685" d="M177.58652,40.9944c-1.563,0-2.54-1.25-2.54-3.2a20.13766,20.13766,0,0,1-4.279,3.2c-3.255,0-5.518-1.836-5.518-4.181s1.476-3.512,3.163-4.309c0,0,5.338-2.6,6.6-3.373v-.71c0-2.926-1.64-4.1-3.595-4.1s-2.458,1.173-2.458,1.954a2.085,2.085,0,0,0,.627,1.363,2.165,2.165,0,0,1-1.878,1.173,1.76394,1.76394,0,0,1-1.872-1.949c0-1.563,1.676-2.268,3.435-2.931l3.785-1.4c2.926,0,5,1.4,5,4.335v9.755c0,1.368.586,2.072,1.25,2.072a2.9,2.9,0,0,0,1.718-.663l.288.381-2.067,2.119a3.5999,3.5999,0,0,1-1.656.468m-2.581-10.623c-.437.278-4.232,2.227-4.232,2.227a3.757,3.757,0,0,0-2.329,3.625,3.054,3.054,0,0,0,3.161,2.659c1.327,0,3.4-2.268,3.4-2.268Z" transform="translate(-1.02751 0.00558)"/><path id="Trazado_7686" data-name="Trazado 7686" d="M11.83354,16.4914H1.21852v1.013c1.368.077,2.345.272,2.854.859.468.586.581,1.368.581,3.435v13.416c0,1.954-.113,2.731-.7,3.317s-.977.7-2.926.977v1.013h10.732v-1.013c-1.949-.237-2.535-.391-3.121-.977s-.663-1.363-.663-3.317v-4.166h4.294a8.158,8.158,0,0,0,5.266-1.754,7.455,7.455,0,0,0,2.736-6.053c0-4.685-4.531-6.752-8.433-6.752m0,13.308h-3.862v-9.949c0-.977.077-1.445.391-1.718.273-.314.581-.314,1.558-.314,3.9,0,6.52,1.718,6.52,5.816s-2.149,6.166-4.607,6.166" transform="translate(-1.02751 0.00558)"/><path id="Trazado_7687" data-name="Trazado 7687" d="M106.66351,31.9384c0-6.037,4.1-9.411,8.516-9.411,3.538,0,7.112,1.748,6.69,7.739l-11.622,2.324a6.169,6.169,0,0,0,6.032,5.667,9.9001,9.9001,0,0,0,5.59-1.455v.982s-1.522,1.028-3.893,2.669a7.65011,7.65011,0,0,1-2.828.535c-5.41,0-8.485-4.258-8.485-9.051m3.451-.509,8.408-1.682c.643-4.386-1.445-5.981-3.2-5.981-3.239.002-5.291,2.887-5.20795,7.664Z" transform="translate(-1.02751 0.00558)"/><path id="Trazado_7688" data-name="Trazado 7688" d="M49.03349,40.52139v-.972c2.026-.2,2.5-.586,2.5-2.736v-7.415c0-2.731-.9-4.489-3.826-4.489a8.813,8.813,0,0,0-4.566,1.954v9.95c0,2.149.468,2.5,2.494,2.736v.972h-8.234v-.972c2.144-.118,2.689-.586,2.689-2.736v-8.783c0-1.949-.391-2.34-2.34-2.926v-.782a12.94893,12.94893,0,0,0,4.849-1.676h.54l-.041,2.849s3.826-1.99,5.61-2.967c3.821-.334,5.867,1.517,5.867,5.7v8.588c0,2.149.545,2.54,2.731,2.736v.972Z" transform="translate(-1.02751 0.00558)"/></g><g id="Grupo_5073" data-name="Grupo 5073"><path id="Trazado_7689" data-name="Trazado 7689" d="M33.40251.79641c-.17.2-.2.458-.2,1.136v3.164a6.26333,6.26333,0,0,1-.237,1.99c-.154.494-.72,1.8-3.07,1.8s-2.9-1.306-3.07-1.79a6.74656,6.74656,0,0,1-.226-2V1.9334c0-.689-.036-.951-.206-1.147s-.447-.262-.941-.288V.1594c.586,0,1.136.062,1.7.062s1.111-.062,1.7-.062v.324c-.483.041-.787.1-.956.3-.154.2-.2.458-.2,1.136v2.936a5.383,5.383,0,0,0,.3,2.16,2.628,2.628,0,0,0,4.248.01,5.24588,5.24588,0,0,0,.3-2.155l-.041-2.941c-.01-.689-.026-.951-.2-1.147-.154-.2-.391-.262-.915-.288V.1554c.483,0,.941.062,1.44.062.483,0,.977-.062,1.476-.062v.324C33.86351.52941,33.56453.59142,33.40251.79641Z" transform="translate(-1.02751 0.00558)"/><path id="Trazado_7690" data-name="Trazado 7690" d="M51.5735.80242c-.2.2-.2.509-.2,1.162l-.051,4.443c0,1.167.093,2.355.093,2.355l-.432.2a15.61793,15.61793,0,0,1-1.111-1.332l-4.536-6.119.093,5.415c0,.653,0,.91.2,1.111s.417.247,1,.324v.339c-.586,0-.941-.067-1.527-.067s-.952.067-1.543.067v-.339a1.568,1.568,0,0,0,.982-.324c.2-.2.2-.458.2-1.111l.052-5.3a1.1109,1.1109,0,0,0-.247-.782,1.473,1.473,0,0,0-.915-.339v-.339c.391,0,.72.062,1.111.062s1.07-.062,1.07-.062a7.50093,7.50093,0,0,0,.72,1.085l4.222,5.682-.067-4.968c-.01-.638,0-.951-.2-1.147a1.48194,1.48194,0,0,0-.977-.314v-.339c.545,0,.941.062,1.5.062s.941-.062,1.5-.062v.324A1.534,1.534,0,0,0,51.5735.80242Z" transform="translate(-1.02751 0.00558)"/><path id="Trazado_7691" data-name="Trazado 7691" d="M63.43153,8.62841c-.591,0-1.178.067-1.764.067v-.339c.653-.093.782-.129.977-.324s.237-.458.237-1.111v-4.983c0-.689-.041-.951-.2-1.147a1.339,1.339,0,0,0-.956-.288v-.339c.591,0,1.111.062,1.7.062s1.111-.062,1.7-.062v.324c-.458.041-.782.1-.941.3s-.2.458-.2,1.136v4.993c0,.653.026.91.221,1.111s.406.257.992.324v.339C64.60353,8.69642,64.01753,8.62841,63.43153,8.62841Z" transform="translate(-1.02751 0.00558)"/><path id="Trazado_7692" data-name="Trazado 7692" d="M81.58452.81741a1.65583,1.65583,0,0,0-.391.679l-2,5.631a11.60115,11.60115,0,0,0-.458,1.44,4.03683,4.03683,0,0,0-.941.262,17.15724,17.15724,0,0,0-.525-1.7l-1.959-5.631a1.8489,1.8489,0,0,0-.391-.679,1.26492,1.26492,0,0,0-.735-.314v-.339c.591,0,.956.062,1.543.062s1.111-.062,1.7-.062v.324c-.591.041-.823.185-.915.355s-.067.458.129,1.044l1.856,5.7,1.9-5.7a1.62706,1.62706,0,0,0,.144-1.044c-.108-.17-.329-.314-.931-.339v-.339c.591,0,.89.062,1.476.062s.653-.062,1.244-.062v.324A1.50007,1.50007,0,0,0,81.58452.81741Z" transform="translate(-1.02751 0.00558)"/><path id="Trazado_7693" data-name="Trazado 7693" d="M97.65852,8.69642c-1.306,0-4.047-.067-4.638-.067s-1.178.067-1.764.067v-.339c.586-.077.787-.129.982-.324s.232-.458.232-1.111v-4.983c0-.689-.036-.951-.2-1.147a1.324,1.324,0,0,0-.951-.288v-.339c.586,0,1.111.062,1.7.062,1.178,0,4.469-.062,4.469-.062l.041,1.933-.262.026c-.391-1.136-.524-1.44-1.635-1.44h-1.5c-.519,0-.55.051-.55.576v2.808l1.337-.036c.586-.015.849-.067,1-.237a1.332,1.332,0,0,0,.314-.915h.314c0,.525-.062.982-.062,1.466s.062.951.062,1.476h-.3a1.8,1.8,0,0,0-.314-.982c-.17-.154-.432-.221-1.018-.231l-1.337-.041v2.679c0,.72.134.89.879.89h1.5c.982,0,1.5-.746,1.892-1.728l.329.093Z" transform="translate(-1.02751 0.00558)"/><path id="Trazado_7694" data-name="Trazado 7694" d="M114.10454,8.64442c-.329,0-.956.051-.956.051l-1.7-3.265c-.237-.447-.329-.735-.787-.746l-.874-.041v2.278c0,.653.026.91.221,1.111s.4.257.915.324v.339c-.586,0-1.111-.067-1.7-.067s-1.177.067-1.764.067v-.339c.586-.067.782-.129.977-.324s.236-.432.236-1.111v-4.983c0-.72-.036-.951-.2-1.147a1.325,1.325,0,0,0-.951-.288v-.339c.586,0,.977.062,1.63.062s1.244-.062,1.9-.062a3.863,3.863,0,0,1,1.434.231,1.913,1.913,0,0,1,1.306,1.764,2.489,2.489,0,0,1-2.062,2.222c.561.067.874.735,1.214,1.373l.941,1.764a1.70013,1.70013,0,0,0,.525.591,1.74711,1.74711,0,0,0,.694.247v.339C114.78352,8.69642,114.42854,8.64442,114.10454,8.64442Zm-1.568-6.351c0-1.306-1.018-1.687-2-1.687h-.417c-.262,0-.329.067-.329.324v3.322l.746-.026c1.3-.067,1.985-.627,1.985-1.934Z" transform="translate(-1.02751 0.00558)"/><path id="Trazado_7695" data-name="Trazado 7695" d="M128.34854,8.17641a2.943,2.943,0,0,1-1.934.715,2.9,2.9,0,0,1-2.088-.782l-.17-2.026.391-.067c.432,2.067,1.409,2.391,1.933,2.391a1.50595,1.50595,0,0,0,1.137-.432,1.59989,1.59989,0,0,0,.432-1.044,1.83307,1.83307,0,0,0-.262-1.044,2.25507,2.25507,0,0,0-.849-.787l-.982-.586a5.29142,5.29142,0,0,1-1.085-.787,2.1,2.1,0,0,1-.6-1.543,2.027,2.027,0,0,1,.9-1.682,2.83194,2.83194,0,0,1,1.831-.5,3.29305,3.29305,0,0,1,1.8.524l-.062,1.774-.3.057c-.2-1.507-.941-1.9-1.723-1.9a1.347,1.347,0,0,0-1.424,1.255,1.4,1.4,0,0,0,.339,1.008,3.66041,3.66041,0,0,0,.849.638l.982.591a4.18764,4.18764,0,0,1,1.2.992,2.268,2.268,0,0,1,.468,1.46A2.46005,2.46005,0,0,1,128.34854,8.17641Z" transform="translate(-1.02751 0.00558)"/><path id="Trazado_7696" data-name="Trazado 7696" d="M140.40251,8.62841c-.586,0-1.178.067-1.764.067v-.339c.653-.093.782-.129.982-.324s.232-.458.232-1.111v-4.983c0-.689-.036-.951-.2-1.147a1.325,1.325,0,0,0-.951-.288v-.339c.586,0,1.111.062,1.7.062s1.111-.062,1.7-.062v.324c-.458.041-.782.1-.941.3s-.2.458-.2,1.136v4.993c0,.653.026.91.226,1.111s.4.257.992.324v.339C141.57951,8.69642,140.98851,8.62841,140.40251,8.62841Z" transform="translate(-1.02751 0.00558)"/><path id="Trazado_7697" data-name="Trazado 7697" d="M157.99451,7.91342a4.864,4.864,0,0,1-2.874.782c-.653,0-1.239-.067-1.831-.067s-1.172.067-1.764.067v-.339c.653-.093.787-.129.982-.324s.232-.447.232-1.111v-4.983c0-.7-.036-.951-.2-1.147a1.325,1.325,0,0,0-.952-.288v-.339c.586,0,1.111.062,1.7.062s.813-.062,1.661-.062a5.65507,5.65507,0,0,1,2.679.561,4.3,4.3,0,0,1,.365,7.189Zm-.807-6.6a3.607,3.607,0,0,0-2.355-.679h-.262c-.653,0-.715.067-.715.72v6.037c0,.586.2.812.782.812h.314a3.3,3.3,0,0,0,2.391-.812,4.22308,4.22308,0,0,0,1.059-3.07,3.619,3.619,0,0,0-1.214-3.01Z" transform="translate(-1.02751 0.00558)"/><path id="Trazado_7698" data-name="Trazado 7698" d="M175.64354,8.6294c-.591,0-1.111.067-1.7.067v-.339c.591-.067.838-.18.931-.381a.991.991,0,0,0-.041-.74l-.535-1.738h-2.931l-.612,1.723a1.03809,1.03809,0,0,0-.051.756c.1.2.355.314.941.381v.339c-.525,0-.9-.067-1.424-.067s-.72.067-1.244.067v-.339a1.49415,1.49415,0,0,0,.72-.324,1.842,1.842,0,0,0,.391-.71l2.093-5.682a10.37348,10.37348,0,0,0,.458-1.44s.679-.067,1.008-.129a15.617,15.617,0,0,0,.494,1.568l1.959,5.682a1.9073,1.9073,0,0,0,.4.71,1.4921,1.4921,0,0,0,.72.324v.339C176.62053,8.69641,176.22954,8.6294,175.64354,8.6294Zm-2.787-7.513-1.316,3.816h2.561Z" transform="translate(-1.02751 0.00558)"/><path id="Trazado_7699" data-name="Trazado 7699" d="M192.66852,7.91342a4.86394,4.86394,0,0,1-2.875.782c-.653,0-1.239-.067-1.826-.067s-1.178.067-1.769.067v-.339c.658-.093.787-.129.982-.324s.237-.447.237-1.111v-4.983c0-.7-.041-.951-.2-1.147a1.339,1.339,0,0,0-.956-.288v-.339c.591,0,1.111.062,1.7.062s.807-.062,1.656-.062a5.65509,5.65509,0,0,1,2.679.561,4.3,4.3,0,0,1,.365,7.189Zm-.807-6.6a3.60591,3.60591,0,0,0-2.355-.679h-.257c-.653,0-.72.067-.72.72v6.037c0,.586.2.812.782.812h.314a3.284,3.284,0,0,0,2.391-.812,4.22191,4.22191,0,0,0,1.059-3.07,3.619,3.619,0,0,0-1.214-3.01Z" transform="translate(-1.02751 0.00558)"/></g></g></svg>
